<svg viewBox="0 0 465.8 88.7" xmlns="http://www.w3.org/2000/svg"><defs><linearGradient id="a" x1="27.28" x2="19.56" y1="18.32" y2="10.83" gradientUnits="userSpaceOnUse"><stop stop-color="#F04923" offset="0"/><stop stop-color="#F99D1C" offset=".77"/><stop stop-color="#FBAA1E" offset=".99"/><stop stop-color="#FBAA1E" offset="1"/></linearGradient><linearGradient id="b" x1="58.53" x2="66.78" y1="18.21" y2="11.96" gradientUnits="userSpaceOnUse"><stop stop-color="#FAA61A" offset="0"/><stop stop-color="#FAA71E" offset=".246"/><stop stop-color="#FBAC29" offset=".476"/><stop stop-color="#FCB33C" offset=".701"/><stop stop-color="#FDBE57" offset=".921"/><stop stop-color="#FEC262" offset="1"/></linearGradient><linearGradient id="c" x1="61.34" x2="36.42" y1="67.8" y2="21.32" gradientUnits="userSpaceOnUse"><stop stop-color="#EF4623" offset="0"/><stop stop-color="#F37021" offset="1"/></linearGradient></defs><path d="M22.44 23.58s-1.89-12.64-1.32-16.16c1.17-7.22 9.18 4.75 9.94 6.87 1.79 5-8.62 9.29-8.62 9.29z" fill="url(#a)"/><path d="M43.5 6.19V88.7l-3.93-4.18s-1.33-21.39-6.75-31.39-10.73-15.42-10.94-27.82S33.03 9.06 35.11 8.12c2.09-.94 8.39-1.93 8.39-1.93zm20.3 17.7s1.89-12.64 1.32-16.16c-1.17-7.22-9.18 4.75-9.94 6.87-1.79 5 8.62 9.29 8.62 9.29z" fill="url(#b)"/><path d="M43.5 6.19V88.7l3.93-4.18s1.33-21.39 6.75-31.39 10.73-15.42 10.94-27.82S53.97 9.06 51.89 8.12c-2.09-.94-8.39-1.93-8.39-1.93z" fill="url(#c)"/><path d="M35.56 31.87c.86 0 1.57-1.58 1.57-3.51s-.7-3.51-1.57-3.51c-.86 0-1.57 1.58-1.57 3.51s.71 3.51 1.57 3.51z"/><ellipse cx="51.61" cy="28.36" rx="1.57" ry="3.51"/><path d="M83.31 62.89V33.24h10.9c2.05 0 3.79.19 5.23.57 1.44.39 2.61.92 3.52 1.61.91.7 1.57 1.54 1.99 2.54.41 1 .62 2.1.62 3.33 0 .66-.09 1.31-.28 1.93s-.49 1.2-.89 1.74c-.41.55-.93 1.04-1.57 1.48s-1.4.83-2.3 1.15c1.95.47 3.4 1.24 4.33 2.3.94 1.06 1.4 2.42 1.4 4.08 0 1.26-.24 2.43-.73 3.51s-1.2 2.03-2.14 2.83-2.11 1.43-3.49 1.88-2.96.68-4.74.68H83.31zm6.87-12.57v7.36h4.84c.91 0 1.65-.12 2.23-.35s1.02-.53 1.35-.89c.33-.37.55-.78.67-1.24s.18-.93.18-1.4c0-.54-.07-1.03-.21-1.46s-.39-.8-.73-1.09c-.35-.3-.81-.53-1.38-.69s-1.29-.24-2.16-.24zm0-4.59h3.58c.76 0 1.44-.05 2.05-.16s1.13-.3 1.56-.57.75-.64.98-1.12c.22-.47.33-1.07.33-1.79 0-.7-.09-1.29-.26-1.76-.18-.47-.45-.84-.81-1.13-.37-.28-.83-.49-1.39-.61s-1.23-.18-2.01-.18h-4.03zm40.84 11.71c.92 0 1.75-.16 2.47-.46s1.34-.74 1.84-1.31.89-1.27 1.15-2.09.39-1.75.39-2.79V33.24h6.87V50.8c0 1.82-.29 3.48-.88 5s-1.44 2.83-2.54 3.93-2.43 1.95-4.01 2.56c-1.57.61-3.34.92-5.31.92-1.98 0-3.76-.31-5.33-.92s-2.91-1.46-4.01-2.56-1.94-2.41-2.52-3.93-.87-3.19-.87-5V33.24h6.87v17.53c0 1.04.14 1.97.4 2.79s.64 1.52 1.15 2.09c.5.58 1.12 1.02 1.84 1.32s1.57.47 2.49.47zm47.59-24.2v2.48c0 .35-.05.7-.17 1.04s-.28.66-.48.96L164.05 57.6h14.11v5.29H155.3v-2.64c0-.31.05-.62.16-.93s.26-.59.45-.85l13.95-19.94h-13.42v-5.29zm33.52 0v2.48c0 .35-.05.7-.17 1.04s-.28.66-.48.96L197.57 57.6h14.11v5.29h-22.86v-2.64c0-.31.05-.62.16-.93s.26-.59.45-.85l13.95-19.94h-13.42v-5.29zm24.45 19.1c.19.33.36.68.51 1.05.14.36.28.73.42 1.1.14-.38.28-.75.43-1.1.15-.36.32-.7.51-1.07l9.94-18.13c.18-.31.36-.51.55-.57.19-.07.46-.1.82-.1h2.93v29.4h-3.49v-21.6c0-.29.01-.59.02-.92s.03-.66.06-1l-10.07 18.37c-.34.61-.82.92-1.44.92h-.57c-.62 0-1.09-.31-1.44-.92l-10.29-18.43c.04.36.08.7.1 1.05.02.34.03.66.03.94v21.59h-3.49v-29.4h2.93c.36 0 .63.03.82.1s.38.26.55.57zm59.33-4.11c0 2.2-.35 4.22-1.05 6.07-.7 1.84-1.68 3.42-2.95 4.75s-2.8 2.36-4.58 3.09-3.76 1.1-5.92 1.1-4.13-.37-5.9-1.1c-1.78-.73-3.3-1.76-4.57-3.09s-2.26-2.91-2.95-4.75c-.7-1.84-1.05-3.87-1.05-6.07s.35-4.22 1.05-6.07c.7-1.84 1.68-3.42 2.95-4.76 1.27-1.33 2.79-2.37 4.57-3.11s3.74-1.11 5.9-1.11 4.13.37 5.92 1.11c1.78.74 3.31 1.78 4.58 3.11 1.27 1.34 2.26 2.92 2.95 4.76.7 1.85 1.05 3.87 1.05 6.07zm-4.08 0c0-1.8-.25-3.43-.74-4.87s-1.19-2.65-2.09-3.65c-.9-.99-2-1.76-3.28-2.29s-2.72-.8-4.31-.8c-1.57 0-3 .27-4.28.8s-2.38 1.3-3.29 2.29c-.91 1-1.61 2.21-2.1 3.65s-.74 3.06-.74 4.87c0 1.8.25 3.42.74 4.86.49 1.43 1.2 2.64 2.1 3.64.91.99 2 1.75 3.29 2.28 1.28.53 2.71.79 4.28.79 1.59 0 3.02-.27 4.31-.79 1.28-.53 2.38-1.28 3.28-2.28s1.6-2.21 2.09-3.64c.49-1.44.74-3.06.74-4.86zm20.34-14.72c.36 0 .62.04.79.13s.36.27.58.55l17.02 22.14c-.04-.36-.07-.7-.08-1.04-.01-.33-.02-.66-.02-.97V33.51h3.49v29.4h-2.01c-.31 0-.57-.05-.79-.16-.21-.11-.42-.29-.63-.55l-17-22.12c.03.34.05.68.06 1 .01.33.02.63.02.9v20.93h-3.49v-29.4zm42.43 29.4h-3.98v-29.4h3.98zm36.66-29.44v3.36h-9.49v26.06h-3.98V36.83h-9.53v-3.36zm38.23 14.76c0 2.2-.35 4.22-1.05 6.07-.7 1.84-1.68 3.42-2.95 4.75s-2.79 2.36-4.58 3.09c-1.78.73-3.76 1.1-5.92 1.1s-4.13-.37-5.9-1.1c-1.78-.73-3.3-1.76-4.57-3.09s-2.26-2.91-2.95-4.75c-.7-1.84-1.05-3.87-1.05-6.07s.35-4.22 1.05-6.07c.7-1.84 1.68-3.42 2.95-4.76 1.27-1.33 2.8-2.37 4.57-3.11 1.78-.74 3.74-1.11 5.9-1.11s4.13.37 5.92 1.11c1.78.74 3.31 1.78 4.58 3.11 1.27 1.34 2.26 2.92 2.95 4.76.71 1.85 1.05 3.87 1.05 6.07zm-4.08 0c0-1.8-.25-3.43-.74-4.87s-1.19-2.65-2.09-3.65c-.9-.99-2-1.76-3.28-2.29s-2.72-.8-4.31-.8c-1.57 0-3 .27-4.28.8s-2.38 1.3-3.29 2.29c-.91 1-1.61 2.21-2.1 3.65s-.74 3.06-.74 4.87c0 1.8.25 3.42.74 4.86.49 1.43 1.2 2.64 2.1 3.64.91.99 2 1.75 3.29 2.28 1.28.53 2.71.79 4.28.79 1.59 0 3.02-.27 4.31-.79 1.28-.53 2.38-1.28 3.28-2.28s1.6-2.21 2.09-3.64c.5-1.44.74-3.06.74-4.86zm22.66 2.42v12.28h-3.96V33.51h8.3c1.86 0 3.46.19 4.82.57 1.35.38 2.47.92 3.36 1.63.88.71 1.53 1.57 1.95 2.58s.64 2.13.64 3.38c0 1.05-.16 2.02-.49 2.92s-.8 1.72-1.42 2.43c-.62.72-1.38 1.33-2.28 1.84s-1.91.89-3.05 1.15c.49.29.93.7 1.31 1.25l8.57 11.69h-3.53c-.72 0-1.26-.28-1.6-.84l-7.63-10.52c-.23-.33-.48-.56-.76-.7-.27-.14-.68-.22-1.23-.22h-3zm0-2.91h4.16c1.16 0 2.19-.14 3.07-.42s1.62-.68 2.21-1.19 1.04-1.12 1.34-1.83.45-1.5.45-2.35c0-1.75-.57-3.07-1.73-3.95-1.16-.89-2.88-1.33-5.16-1.33h-4.35v11.07z"/></svg>